<?xml version="1.0" encoding="UTF-8"?>
<svg xmlns="http://www.w3.org/2000/svg" viewBox="0 0 1200 800" preserveAspectRatio="xMidYMid slice">
  <defs>
    <radialGradient id="g" cx="50%" cy="30%" r="70%">
      <stop offset="0%" stop-color="#051423" stop-opacity="0.25"/>
      <stop offset="100%" stop-color="#001018" stop-opacity="0.6"/>
    </radialGradient>
  </defs>
  <rect width="100%" height="100%" fill="url(#g)" />
  <!-- subtle stars -->
  <g fill="#cfeeff" opacity="0.14">
    <circle cx="80" cy="50" r="1.6" />
    <circle cx="140" cy="120" r="1.2" />
    <circle cx="220" cy="40" r="1.8" />
    <circle cx="320" cy="200" r="1.0" />
    <circle cx="420" cy="80" r="1.4" />
    <circle cx="540" cy="140" r="1.1" />
    <circle cx="660" cy="60" r="1.6" />
    <circle cx="760" cy="180" r="1.2" />
    <circle cx="860" cy="40" r="1.9" />
    <circle cx="980" cy="110" r="1.0" />
    <circle cx="1120" cy="70" r="1.3" />
    <circle cx="60" cy="260" r="1.0" />
    <circle cx="180" cy="300" r="1.6" />
    <circle cx="260" cy="360" r="1.2" />
    <circle cx="360" cy="320" r="1.4" />
    <circle cx="480" cy="300" r="1.0" />
    <circle cx="580" cy="360" r="1.8" />
    <circle cx="700" cy="300" r="1.1" />
    <circle cx="820" cy="360" r="1.3" />
    <circle cx="940" cy="280" r="1.0" />
    <circle cx="1060" cy="330" r="1.6" />
    <circle cx="300" cy="520" r="1.2" />
    <circle cx="420" cy="460" r="1.4" />
    <circle cx="540" cy="520" r="1.0" />
    <circle cx="660" cy="440" r="1.8" />
    <circle cx="780" cy="500" r="1.2" />
    <circle cx="900" cy="480" r="1.3" />
    <circle cx="1040" cy="560" r="1.1" />
    <circle cx="1120" cy="460" r="1.6" />
  </g>
  <!-- a few brighter distant stars -->
  <g fill="#e6fbff" opacity="0.22">
    <circle cx="200" cy="80" r="2.6" />
    <circle cx="540" cy="60" r="2.2" />
    <circle cx="920" cy="140" r="2.8" />
  </g>
</svg>
